<svg version="1.1" id="Layer_1" xmlns="http://www.w3.org/2000/svg" xmlns:xlink="http://www.w3.org/1999/xlink" x="0px" y="0px"
	 width="100%" viewBox="0 0 216 233" enable-background="new 0 0 216 233" xml:space="preserve">
<path fill="#FFFEFE" opacity="1.000000" stroke="none" 
	d="
M120.000000,234.000000 
	C80.000000,234.000000 40.500004,234.000000 1.000005,234.000000 
	C1.000004,156.333344 1.000004,78.666679 1.000002,1.000016 
	C72.999992,1.000010 144.999985,1.000010 216.999969,1.000005 
	C216.999985,78.666649 216.999985,156.333298 217.000000,233.999969 
	C184.833328,234.000000 152.666672,234.000000 120.000000,234.000000 
M106.765327,225.261780 
	C105.800606,225.549545 104.835892,225.837311 103.871170,226.125076 
	C104.257805,226.933609 104.644432,227.742142 105.277443,228.778519 
	C105.474968,228.890488 105.686531,228.959259 106.072990,229.498749 
	C106.399200,229.331039 106.725410,229.163330 107.000404,228.984512 
	C107.000404,228.984512 106.990288,229.035461 107.640526,228.769028 
	C108.369217,227.892929 109.097908,227.016830 109.457520,226.584473 
	C109.191139,226.518555 108.090736,226.246277 107.003883,226.025726 
	C107.003883,226.025726 107.057198,226.018387 106.765327,225.261780 
M86.567963,225.943481 
	C86.375023,225.944839 86.182076,225.946182 85.983711,225.255783 
	C85.597343,224.674530 85.210976,224.093292 84.824615,223.512039 
	C84.539352,224.376999 84.254089,225.241943 83.313690,226.232025 
	C83.519867,227.143555 83.726036,228.055069 84.565727,228.999634 
	C84.988297,229.016876 85.410873,229.034119 86.497307,229.219971 
	C86.686539,229.092346 86.875778,228.964722 87.820671,228.909424 
	C88.200218,228.255005 88.579765,227.600601 88.959320,226.946182 
	C88.333931,226.699921 87.708542,226.453659 86.567963,225.943481 
M63.795334,224.621170 
	C63.084820,226.959763 63.160561,228.870361 66.438408,229.137512 
	C66.438408,229.137512 66.802719,229.098740 67.397820,229.293152 
	C67.587952,229.379181 67.778076,229.465210 68.450905,230.054016 
	C70.257652,229.780197 72.064400,229.506363 73.871155,229.232544 
	C74.110085,228.703598 74.349022,228.174667 74.587959,227.645721 
	C73.336075,226.835876 72.084198,226.026047 70.100830,225.000641 
	C68.900940,225.280380 67.701057,225.560135 66.437904,225.827820 
	C66.437904,225.827820 66.301834,225.849731 65.936768,225.178009 
	C65.609795,224.791641 65.282814,224.405258 64.889862,223.572464 
	C64.635414,223.730301 64.380966,223.888138 63.795334,224.621170 
M156.234863,113.541931 
	C157.400955,115.009003 158.567047,116.476082 159.733139,117.943161 
	C159.987595,117.706551 160.242050,117.469933 160.496506,117.233322 
	C159.953537,115.400681 159.410568,113.568039 158.852417,111.169792 
	C158.830231,110.794106 158.808029,110.418411 159.439346,109.758904 
	C159.476044,108.275635 160.061005,106.497330 159.450302,105.362434 
	C157.314651,101.393669 154.814362,97.615700 152.352280,93.830505 
	C151.289459,92.196533 150.000946,90.706444 148.778763,89.179962 
	C147.775452,87.926865 146.526413,86.830284 145.720230,85.466881 
	C142.883621,80.669685 140.173965,75.796867 137.453506,70.931847 
	C136.578537,69.367149 135.775085,67.758354 135.017822,66.132973 
	C134.046356,64.047813 133.395966,61.774010 132.185913,59.845909 
	C127.331421,52.110741 122.399139,44.420128 117.276398,36.861618 
	C116.384544,35.545692 114.435455,34.946297 112.585701,33.491039 
	C111.747734,33.290936 110.909760,33.090832 110.026299,32.186047 
	C109.753670,31.212702 109.481041,30.239355 109.208412,29.266008 
	C108.717728,29.127375 108.227051,28.988743 107.736366,28.850109 
	C104.146431,35.561321 100.556496,42.272533 96.474838,49.290813 
	C96.292946,49.825001 96.111046,50.359192 95.246223,51.057346 
	C92.502190,55.704460 89.758156,60.351570 86.477524,65.366089 
	C85.332253,66.918190 84.186989,68.470291 82.245171,70.006752 
	C77.235977,70.304573 73.187439,72.396675 73.211845,77.787880 
	C73.232689,82.392319 71.504524,84.420486 65.983192,84.703445 
	C67.181587,87.916092 68.135979,90.474617 68.797318,93.627228 
	C67.886909,95.097305 66.976509,96.567390 65.302734,98.021118 
	C56.526474,101.020325 53.099003,104.960999 54.864929,108.780251 
	C57.022141,108.164772 59.037670,107.589706 60.804447,107.596428 
	C60.512951,108.373077 60.221455,109.149734 60.000778,109.973236 
	C60.000778,109.973236 59.922058,109.945190 59.550179,110.143539 
	C59.672947,110.459656 59.795719,110.775764 60.289192,111.611816 
	C61.186428,112.131081 62.083664,112.650345 62.977318,113.869888 
	C63.237312,116.096939 63.497311,118.323990 63.775787,120.709358 
	C66.152260,119.954407 67.703659,119.461571 69.788750,118.799194 
	C67.911049,123.940384 64.551819,124.254944 59.646542,120.424332 
	C58.887672,122.073883 57.780289,123.635834 57.533142,125.323738 
	C57.375797,126.398399 58.445583,128.645004 59.049034,128.674927 
	C62.514668,128.846893 64.508087,130.321030 65.603043,133.638092 
	C65.849136,134.383621 67.818733,134.560257 69.544167,135.364822 
	C70.730049,137.209106 71.915924,139.053375 72.627151,141.466858 
	C70.190369,141.466858 67.753578,141.466858 65.316795,141.466858 
	C65.164116,142.122665 65.011436,142.778473 64.858757,143.434280 
	C67.571991,145.954147 70.285233,148.474030 73.069145,151.691605 
	C76.366264,158.314499 83.917725,158.926102 89.563065,163.384949 
	C92.204559,167.196854 94.695038,171.125473 97.527054,174.790146 
	C100.818611,179.049500 104.409554,183.077484 107.906540,187.584396 
	C107.906540,187.584396 107.943596,187.962799 108.025375,188.565414 
	C108.734665,188.412262 109.443954,188.259109 110.706192,187.729156 
	C112.027794,186.065338 113.465111,184.479645 114.650772,182.724014 
	C119.492950,175.554016 124.258217,168.332062 129.715881,160.941589 
	C134.752777,153.958923 139.789688,146.976242 144.951248,139.522156 
	C144.951248,139.522156 145.020355,139.039429 145.682495,138.875504 
	C146.813354,136.936203 147.944199,134.996887 149.003983,132.999237 
	C149.003983,132.999237 149.062363,133.069962 149.719040,132.909485 
	C151.850235,128.758362 157.305038,126.631790 157.275986,120.914085 
	C157.187805,120.947868 157.099625,120.981644 156.364044,121.054947 
	C155.585739,121.413086 154.807449,121.771217 153.750854,121.436981 
	C153.168320,119.297646 152.585770,117.158318 152.409195,114.930328 
	C152.409195,114.930328 152.824570,114.919006 153.498688,114.911980 
	C154.000916,114.299698 154.503143,113.687416 155.480804,112.963242 
	C155.480804,112.963242 155.965454,112.902679 156.234863,113.541931 
M148.170090,229.409546 
	C148.902069,229.118576 149.634033,228.827621 150.366013,228.536652 
	C150.339233,228.481934 150.312454,228.427200 150.285675,228.372482 
	C153.471375,227.157974 156.657059,225.943481 159.842758,224.728973 
	C159.683395,224.053146 159.524033,223.377304 159.364670,222.701477 
	C155.539978,223.150482 151.715286,223.599503 147.451126,223.997314 
	C147.451126,223.997314 147.008774,224.004837 146.407623,223.690536 
	C144.890228,222.997620 143.372833,222.304703 142.574738,221.940247 
	C140.940323,223.308075 139.566696,225.323547 138.477356,225.180099 
	C136.511490,224.921234 134.715622,223.371231 132.733063,222.297821 
	C132.572708,222.605759 131.999908,223.705795 131.471863,224.719849 
	C128.997650,224.145401 126.824448,223.640854 124.651253,223.136307 
	C124.553795,223.525650 124.456329,223.914993 124.358864,224.304337 
	C125.711739,225.171875 127.064606,226.039398 128.530167,226.979187 
	C128.010559,228.400040 127.538834,229.689926 127.151329,230.749557 
	C130.752548,230.164780 134.170380,229.424133 137.627182,229.103439 
	C140.759201,228.812851 143.933670,228.980118 147.525177,228.938538 
	C147.525177,228.938538 147.953369,228.854462 148.170090,229.409546 
M102.107025,227.796616 
	C101.291306,227.948334 100.475586,228.100037 99.659866,228.251755 
	C99.779091,228.598145 99.898315,228.944534 100.017540,229.290924 
	C100.862511,228.932724 101.707481,228.574509 102.107025,227.796616 
M96.531586,229.384552 
	C96.531586,229.384552 96.435356,229.548035 96.435356,229.548035 
	C96.435356,229.548035 96.629036,229.526321 96.531586,229.384552 
z"/>
<path fill="#BCF8F5" opacity="1.000000" stroke="none" 
	d="
M110.071793,32.890724 
	C110.909760,33.090832 111.747734,33.290936 112.784531,34.126129 
	C115.482910,39.159733 117.864296,43.630684 120.506775,47.941593 
	C125.901237,56.742069 131.537766,65.394890 136.886230,74.222641 
	C142.842789,84.054062 148.631271,93.988464 154.383377,103.941345 
	C155.240677,105.424759 155.498093,107.254875 155.691391,108.812927 
	C151.906906,107.457726 148.464081,106.214203 145.015656,104.982483 
	C145.010086,104.994286 145.022751,104.980118 144.857483,104.670532 
	C139.478027,102.205521 134.263855,100.050102 128.881119,97.660217 
	C128.171646,97.261116 127.630745,97.096466 126.994980,96.591606 
	C122.263794,94.186813 117.627472,92.122231 112.824348,89.810684 
	C112.102089,89.391319 111.546616,89.218918 110.754921,89.117416 
	C110.217682,89.353218 109.998894,89.593132 109.716850,89.884506 
	C109.571358,89.860947 109.283569,89.797180 109.252121,89.524704 
	C109.176147,89.074875 109.131630,88.897522 109.058105,88.281967 
	C109.021141,71.409103 108.978798,54.974293 109.052299,38.539997 
	C109.060730,36.655422 109.716286,34.773746 110.071793,32.890724 
z"/>
<path fill="#8CABED" opacity="1.000000" stroke="none" 
	d="
M109.087120,88.720169 
	C109.131630,88.897522 109.176147,89.074875 109.154068,90.007607 
	C109.060265,104.636169 109.101959,118.510300 108.913071,132.381287 
	C108.891060,133.997665 107.594070,135.596710 106.515259,137.169830 
	C100.035896,133.937347 93.856606,130.869232 87.840645,127.508728 
	C79.489830,122.844002 71.261604,117.959831 62.980896,113.169601 
	C62.083664,112.650345 61.186428,112.131081 60.120270,111.064857 
	C59.941586,110.326996 59.931824,110.136093 59.922058,109.945190 
	C59.922058,109.945190 60.000778,109.973236 60.337269,109.930305 
	C68.349945,106.485870 76.012558,103.053329 83.705956,99.691208 
	C92.151558,96.000359 100.625519,92.374405 109.087120,88.720169 
z"/>
<path fill="#EFCEC3" opacity="1.000000" stroke="none" 
	d="
M83.041718,70.022400 
	C84.186989,68.470291 85.332253,66.918190 87.140610,65.181839 
	C88.998398,64.625885 90.950775,64.572319 91.262497,63.829895 
	C93.034843,59.608749 94.415359,55.223083 95.929153,50.893379 
	C96.111046,50.359192 96.292946,49.825001 97.120293,49.141380 
	C98.767845,48.600639 100.032692,48.467545 100.720657,47.767517 
	C102.480804,45.976540 103.984154,43.933197 105.590210,41.990788 
	C106.831970,44.112492 106.959625,45.550049 106.953476,46.987030 
	C106.901077,59.229683 106.913414,71.474281 106.632851,83.712013 
	C106.600792,85.110130 105.201927,87.108414 103.904770,87.746033 
	C93.605904,92.808403 83.206245,97.670494 72.754128,102.410172 
	C71.470497,102.992249 69.694962,102.489540 67.282448,102.489540 
	C69.439995,100.113037 70.996811,98.911964 71.866646,97.332542 
	C73.644417,94.104500 74.806068,90.523514 76.708893,87.383224 
	C77.793854,85.592659 78.748032,84.599297 75.978928,83.631149 
	C78.347160,78.852013 80.694443,74.437202 83.041718,70.022400 
z"/>
<path fill="#EECEC7" opacity="1.000000" stroke="none" 
	d="
M107.870560,187.205887 
	C104.409554,183.077484 100.818611,179.049500 97.527054,174.790146 
	C94.695038,171.125473 92.204559,167.196854 89.261444,162.844650 
	C88.262245,160.893753 87.564674,159.483170 87.156097,157.857269 
	C87.805641,153.624084 86.740120,150.783630 81.842117,150.758224 
	C81.427444,150.041092 81.136299,149.571213 81.113174,148.911407 
	C80.211792,147.500580 79.042397,146.279678 77.592072,144.904205 
	C76.223427,144.131454 75.135727,143.513260 74.020905,142.605972 
	C73.696457,141.843811 73.399132,141.370743 73.101807,140.897659 
	C71.915924,139.053375 70.730049,137.209106 69.127640,134.857788 
	C67.216431,131.431595 65.721748,128.512451 64.227058,125.593307 
	C64.524429,125.249428 64.821800,124.905548 65.119171,124.561661 
	C70.097496,127.216408 75.103180,129.821396 80.046516,132.539780 
	C85.066055,135.300049 90.024071,138.172195 95.198517,141.263062 
	C96.923615,142.356720 98.459229,143.182663 100.197876,144.272736 
	C102.957222,146.074326 105.513535,147.611786 108.123749,149.553650 
	C108.449173,151.236481 108.947037,152.513321 108.956207,153.793640 
	C109.025879,163.521759 109.045517,173.250977 108.953285,182.978668 
	C108.939888,184.391037 108.248314,185.796967 107.870560,187.205887 
z"/>
<path fill="#C9B5F1" opacity="1.000000" stroke="none" 
	d="
M107.888550,187.395142 
	C108.248314,185.796967 108.939888,184.391037 108.953285,182.978668 
	C109.045517,173.250977 109.025879,163.521759 108.956207,153.793640 
	C108.947037,152.513321 108.449173,151.236481 108.119217,149.516968 
	C108.060791,149.075882 108.041130,149.007767 108.413254,149.018646 
	C111.293167,147.807404 113.876656,146.718079 116.295219,145.339432 
	C125.199387,140.263702 134.048889,135.092117 143.229980,129.951813 
	C144.011276,129.605927 144.481567,129.264847 144.969208,128.961884 
	C144.986588,129.000000 144.943008,128.924072 145.347076,128.949280 
	C148.976242,128.624527 149.121765,130.764404 149.062363,133.069962 
	C149.062363,133.069962 149.003983,132.999237 148.686707,133.056641 
	C147.253082,135.089188 146.136719,137.064301 145.020355,139.039429 
	C145.020355,139.039429 144.951248,139.522156 144.515976,139.760101 
	C142.889862,140.419632 141.200882,140.482361 140.594086,141.324677 
	C137.908356,145.052872 135.418961,148.937607 133.086838,152.900085 
	C131.541718,155.525360 130.383316,158.378235 129.051788,161.129242 
	C124.258217,168.332062 119.492950,175.554016 114.650772,182.724014 
	C113.465111,184.479645 112.027794,186.065338 110.061401,187.877350 
	C108.925613,188.004623 108.434601,187.983704 107.943596,187.962799 
	C107.943596,187.962799 107.906540,187.584396 107.888550,187.395142 
z"/>
<path fill="#F7F9FA" opacity="1.000000" stroke="none" 
	d="
M95.009026,140.995361 
	C90.024071,138.172195 85.066055,135.300049 80.046516,132.539780 
	C75.103180,129.821396 70.097496,127.216408 65.119171,124.561661 
	C64.821800,124.905548 64.524429,125.249428 64.227058,125.593307 
	C65.721748,128.512451 67.216431,131.431595 68.853012,134.674759 
	C67.818733,134.560257 65.849136,134.383621 65.603043,133.638092 
	C64.508087,130.321030 62.514668,128.846893 59.049034,128.674927 
	C58.445583,128.645004 57.375797,126.398399 57.533142,125.323738 
	C57.780289,123.635834 58.887672,122.073883 59.646542,120.424332 
	C64.551819,124.254944 67.911049,123.940384 69.788750,118.799194 
	C67.703659,119.461571 66.152260,119.954407 63.775787,120.709358 
	C63.497311,118.323990 63.237312,116.096939 62.979111,113.519745 
	C71.261604,117.959831 79.489830,122.844002 87.840645,127.508728 
	C93.856606,130.869232 100.035896,133.937347 106.685257,137.437958 
	C108.155968,138.214050 109.083748,138.688065 109.954887,139.535767 
	C109.279205,142.942230 108.660164,145.975006 108.041130,149.007767 
	C108.041130,149.007767 108.060791,149.075882 108.065323,149.112579 
	C105.513535,147.611786 102.957222,146.074326 100.239304,143.905640 
	C99.938324,141.668060 99.798950,140.061661 99.659576,138.455276 
	C98.109390,139.301971 96.559204,140.148666 95.009026,140.995361 
z"/>
<path fill="#E4D1D1" opacity="1.000000" stroke="none" 
	d="
M75.957970,83.995476 
	C78.748032,84.599297 77.793854,85.592659 76.708893,87.383224 
	C74.806068,90.523514 73.644417,94.104500 71.866646,97.332542 
	C70.996811,98.911964 69.439995,100.113037 67.282448,102.489540 
	C69.694962,102.489540 71.470497,102.992249 72.754128,102.410172 
	C83.206245,97.670494 93.605904,92.808403 103.904770,87.746033 
	C105.201927,87.108414 106.600792,85.110130 106.632851,83.712013 
	C106.913414,71.474281 106.901077,59.229683 106.953476,46.987030 
	C106.959625,45.550049 106.831970,44.112492 105.590210,41.990788 
	C103.984154,43.933197 102.480804,45.976540 100.720657,47.767517 
	C100.032692,48.467545 98.767845,48.600639 97.366150,48.987846 
	C100.556496,42.272533 104.146431,35.561321 107.736366,28.850109 
	C108.227051,28.988743 108.717728,29.127375 109.208412,29.266008 
	C109.481041,30.239355 109.753670,31.212702 110.049042,32.538383 
	C109.716286,34.773746 109.060730,36.655422 109.052299,38.539997 
	C108.978798,54.974293 109.021141,71.409103 109.058105,88.281967 
	C100.625519,92.374405 92.151558,96.000359 83.705956,99.691208 
	C76.012558,103.053329 68.349945,106.485870 60.301857,109.906876 
	C60.221455,109.149734 60.512951,108.373077 61.192047,107.097023 
	C63.075134,103.744232 64.570625,100.890854 66.066109,98.037468 
	C66.976509,96.567390 67.886909,95.097305 69.235565,93.166687 
	C71.768532,89.802589 73.863251,86.899033 75.957970,83.995476 
z"/>
<path fill="#FCF8FC" opacity="1.000000" stroke="none" 
	d="
M108.413254,149.018646 
	C108.660164,145.975006 109.279205,142.942230 110.267227,139.367477 
	C116.759636,135.221283 122.883064,131.617065 129.352707,127.954788 
	C137.133682,123.604134 144.568451,119.311554 152.003220,115.018982 
	C152.585770,117.158318 153.168320,119.297646 153.722351,122.069153 
	C150.776917,124.775581 147.859970,126.849831 144.943008,128.924072 
	C144.943008,128.924072 144.986588,129.000000 144.668854,128.982697 
	C143.873718,129.295776 143.396332,129.626175 142.918961,129.956573 
	C134.048889,135.092117 125.199387,140.263702 116.295219,145.339432 
	C113.876656,146.718079 111.293167,147.807404 108.413254,149.018646 
z"/>
<path fill="#EAFDFD" opacity="1.000000" stroke="none" 
	d="
M156.033035,108.924599 
	C155.498093,107.254875 155.240677,105.424759 154.383377,103.941345 
	C148.631271,93.988464 142.842789,84.054062 136.886230,74.222641 
	C131.537766,65.394890 125.901237,56.742069 120.506775,47.941593 
	C117.864296,43.630684 115.482910,39.159733 112.979019,34.388588 
	C114.435455,34.946297 116.384544,35.545692 117.276398,36.861618 
	C122.399139,44.420128 127.331421,52.110741 132.185913,59.845909 
	C133.395966,61.774010 134.046356,64.047813 135.017822,66.132973 
	C135.775085,67.758354 136.578537,69.367149 137.453506,70.931847 
	C140.173965,75.796867 142.883621,80.669685 145.720230,85.466881 
	C146.526413,86.830284 147.775452,87.926865 148.778763,89.179962 
	C150.000946,90.706444 151.289459,92.196533 152.352280,93.830505 
	C154.814362,97.615700 157.314651,101.393669 159.450302,105.362434 
	C160.061005,106.497330 159.476044,108.275635 158.848389,109.766121 
	C157.515961,109.490425 156.774490,109.207512 156.033035,108.924599 
z"/>
<path fill="#FEF8F4" opacity="1.000000" stroke="none" 
	d="
M75.978928,83.631149 
	C73.863251,86.899033 71.768532,89.802589 69.382088,92.869644 
	C68.135979,90.474617 67.181587,87.916092 65.983192,84.703445 
	C71.504524,84.420486 73.232689,82.392319 73.211845,77.787880 
	C73.187439,72.396675 77.235977,70.304573 82.643448,70.014572 
	C80.694443,74.437202 78.347160,78.852013 75.978928,83.631149 
z"/>
<path fill="#D7D7D7" opacity="1.000000" stroke="none" 
	d="
M147.089432,228.945526 
	C143.933670,228.980118 140.759201,228.812851 137.627182,229.103439 
	C134.170380,229.424133 130.752548,230.164780 127.151329,230.749557 
	C127.538834,229.689926 128.010559,228.400040 128.530167,226.979187 
	C127.064606,226.039398 125.711739,225.171875 124.358864,224.304337 
	C124.456329,223.914993 124.553795,223.525650 124.651253,223.136307 
	C126.824448,223.640854 128.997650,224.145401 131.471863,224.719849 
	C131.999908,223.705795 132.572708,222.605759 132.733063,222.297821 
	C134.715622,223.371231 136.511490,224.921234 138.477356,225.180099 
	C139.566696,225.323547 140.940323,223.308075 142.574738,221.940247 
	C143.372833,222.304703 144.890228,222.997620 146.677933,224.260284 
	C146.995300,226.201843 147.042374,227.573685 147.089432,228.945526 
M137.353088,227.478012 
	C137.353088,227.478012 137.518814,227.581161 137.518814,227.581161 
	C137.518814,227.581161 137.498428,227.359924 137.353088,227.478012 
z"/>
<path fill="#FEFBF7" opacity="1.000000" stroke="none" 
	d="
M80.845154,149.101334 
	C81.136299,149.571213 81.427444,150.041092 81.879181,151.106049 
	C83.648880,153.824951 85.257996,155.948761 86.867111,158.072571 
	C87.564674,159.483170 88.262245,160.893753 88.994141,162.645386 
	C83.917725,158.926102 76.366264,158.314499 73.033897,150.925415 
	C73.348442,147.737839 73.698235,145.316452 74.048027,142.895050 
	C75.135727,143.513260 76.223427,144.131454 77.628250,145.256729 
	C78.911957,146.876312 79.878555,147.988831 80.845154,149.101334 
z"/>
<path fill="#CABCE6" opacity="1.000000" stroke="none" 
	d="
M129.383835,161.035416 
	C130.383316,158.378235 131.541718,155.525360 133.086838,152.900085 
	C135.418961,148.937607 137.908356,145.052872 140.594086,141.324677 
	C141.200882,140.482361 142.889862,140.419632 144.453644,139.995819 
	C139.789688,146.976242 134.752777,153.958923 129.383835,161.035416 
z"/>
<path fill="#FDF8F7" opacity="1.000000" stroke="none" 
	d="
M65.684418,98.029297 
	C64.570625,100.890854 63.075134,103.744232 61.316422,106.806137 
	C59.037670,107.589706 57.022141,108.164772 54.864929,108.780251 
	C53.099003,104.960999 56.526474,101.020325 65.684418,98.029297 
z"/>
<path fill="#C1BDE7" opacity="1.000000" stroke="none" 
	d="
M152.206207,114.974655 
	C144.568451,119.311554 137.133682,123.604134 129.388428,127.602463 
	C135.732407,120.339325 144.299606,116.563271 153.027542,113.027374 
	C153.069305,113.068932 153.152863,113.152008 153.107605,113.447815 
	C152.983093,114.135414 152.903839,114.527214 152.824570,114.919006 
	C152.824570,114.919006 152.409195,114.930328 152.206207,114.974655 
z"/>
<path fill="#CBC1E1" opacity="1.000000" stroke="none" 
	d="
M145.347076,128.949280 
	C147.859970,126.849831 150.776917,124.775581 153.861511,122.415344 
	C154.807449,121.771217 155.585739,121.413086 156.681458,121.027054 
	C156.998886,120.999168 156.982269,120.985840 156.982269,120.985840 
	C157.305038,126.631790 151.850235,128.758362 149.390701,132.989716 
	C149.121765,130.764404 148.976242,128.624527 145.347076,128.949280 
z"/>
<path fill="#F7F9FA" opacity="1.000000" stroke="none" 
	d="
M74.020905,142.605972 
	C73.698235,145.316452 73.348442,147.737839 72.998566,150.576569 
	C70.285233,148.474030 67.571991,145.954147 64.858757,143.434280 
	C65.011436,142.778473 65.164116,142.122665 65.316795,141.466858 
	C67.753578,141.466858 70.190369,141.466858 72.864479,141.182251 
	C73.399132,141.370743 73.696457,141.843811 74.020905,142.605972 
z"/>
<path fill="#EFEFEF" opacity="1.000000" stroke="none" 
	d="
M147.890594,224.048523 
	C151.715286,223.599503 155.539978,223.150482 159.364670,222.701477 
	C159.524033,223.377304 159.683395,224.053146 159.842758,224.728973 
	C156.657059,225.943481 153.471375,227.157974 150.285675,228.372482 
	C150.312454,228.427200 150.339233,228.481934 150.366013,228.536652 
	C149.634033,228.827621 148.902069,229.118576 148.073517,228.734009 
	C147.948166,226.721802 147.919373,225.385162 147.890594,224.048523 
z"/>
<path fill="#E4D1D1" opacity="1.000000" stroke="none" 
	d="
M95.587692,50.975365 
	C94.415359,55.223083 93.034843,59.608749 91.262497,63.829895 
	C90.950775,64.572319 88.998398,64.625885 87.408920,64.998131 
	C89.758156,60.351570 92.502190,55.704460 95.587692,50.975365 
z"/>
<path fill="#C1BDE7" opacity="1.000000" stroke="none" 
	d="
M155.691391,108.812927 
	C156.774490,109.207512 157.515961,109.490425 158.521622,109.908035 
	C158.808029,110.418411 158.830231,110.794106 158.539673,111.508743 
	C157.473099,112.199356 156.719284,112.551018 155.965454,112.902679 
	C155.965454,112.902679 155.480804,112.963242 154.932800,113.004745 
	C153.974136,113.081505 153.563507,113.116753 153.152863,113.152008 
	C153.152863,113.152008 153.069305,113.068932 153.026031,112.655701 
	C151.766922,111.148163 150.544281,110.061317 149.337021,108.957619 
	C147.891571,107.636139 146.459244,106.300293 145.021240,104.970673 
	C148.464081,106.214203 151.906906,107.457726 155.691391,108.812927 
z"/>
<path fill="#C8C8C8" opacity="1.000000" stroke="none" 
	d="
M70.832306,225.216217 
	C72.084198,226.026047 73.336075,226.835876 74.587959,227.645721 
	C74.349022,228.174667 74.110085,228.703598 73.871155,229.232544 
	C72.064400,229.506363 70.257652,229.780197 68.324913,229.456940 
	C69.076714,227.645309 69.954506,226.430756 70.832306,225.216217 
z"/>
<path fill="#FAF8FB" opacity="1.000000" stroke="none" 
	d="
M156.100159,113.222305 
	C156.719284,112.551018 157.473099,112.199356 158.547272,111.791542 
	C159.410568,113.568039 159.953537,115.400681 160.496506,117.233322 
	C160.242050,117.469933 159.987595,117.706551 159.733139,117.943161 
	C158.567047,116.476082 157.400955,115.009003 156.100159,113.222305 
z"/>
<path fill="#CBC1E1" opacity="1.000000" stroke="none" 
	d="
M145.351425,138.957458 
	C146.136719,137.064301 147.253082,135.089188 148.722260,133.085815 
	C147.944199,134.996887 146.813354,136.936203 145.351425,138.957458 
z"/>
<path fill="#8A8A8A" opacity="1.000000" stroke="none" 
	d="
M70.466568,225.108429 
	C69.954506,226.430756 69.076714,227.645309 68.083557,229.205536 
	C67.778076,229.465210 67.587952,229.379181 67.151993,228.783569 
	C66.771172,227.462601 66.636169,226.651245 66.501167,225.839874 
	C67.701057,225.560135 68.900940,225.280380 70.466568,225.108429 
z"/>
<path fill="#EFEFEF" opacity="1.000000" stroke="none" 
	d="
M85.833443,229.051346 
	C85.410873,229.034119 84.988297,229.016876 84.288544,228.626862 
	C83.997177,227.538361 83.983002,226.822632 83.968826,226.106903 
	C84.254089,225.241943 84.539352,224.376999 84.824615,223.512039 
	C85.210976,224.093292 85.597343,224.674530 85.954849,225.989456 
	C85.895134,227.499207 85.864288,228.275269 85.833443,229.051346 
z"/>
<path fill="#7F7F7F" opacity="1.000000" stroke="none" 
	d="
M106.990334,225.973984 
	C108.090736,226.246277 109.191139,226.518555 109.457520,226.584473 
	C109.097908,227.016830 108.369217,227.892929 107.217972,228.527130 
	C106.860390,227.514801 106.925362,226.744400 106.990334,225.973984 
z"/>
<path fill="#646464" opacity="1.000000" stroke="none" 
	d="
M66.254150,229.138229 
	C63.160561,228.870361 63.084820,226.959763 64.168243,224.326691 
	C64.541161,224.032211 64.955841,224.018890 64.955841,224.018890 
	C65.282814,224.405258 65.609795,224.791641 65.649780,225.797104 
	C65.659912,227.323547 65.957031,228.230881 66.254150,229.138229 
z"/>
<path fill="#626262" opacity="1.000000" stroke="none" 
	d="
M87.083145,226.207397 
	C87.708542,226.453659 88.333931,226.699921 88.959320,226.946182 
	C88.579765,227.600601 88.200218,228.255005 87.457916,228.544922 
	C87.091156,227.522751 87.087151,226.865082 87.083145,226.207397 
z"/>
<path fill="#E2E2E2" opacity="1.000000" stroke="none" 
	d="
M66.346275,229.137878 
	C65.957031,228.230881 65.659912,227.323547 65.832314,226.132965 
	C66.301834,225.849731 66.437904,225.827820 66.469536,225.833847 
	C66.636169,226.651245 66.771172,227.462601 66.854446,228.686356 
	C66.802719,229.098740 66.438408,229.137512 66.346275,229.137878 
z"/>
<path fill="#EEEEEE" opacity="1.000000" stroke="none" 
	d="
M106.997108,225.999847 
	C106.925362,226.744400 106.860390,227.514801 106.892853,228.660339 
	C106.990288,229.035461 107.000404,228.984512 106.742104,228.883759 
	C106.293251,228.850266 106.102699,228.917542 105.912140,228.984833 
	C105.686531,228.959259 105.474968,228.890488 105.118935,228.258484 
	C105.659348,227.165100 106.358269,226.591736 107.057190,226.018387 
	C107.057198,226.018387 107.003883,226.025726 106.997108,225.999847 
z"/>
<path fill="#B5B5B5" opacity="1.000000" stroke="none" 
	d="
M102.329735,228.006454 
	C101.707481,228.574509 100.862511,228.932724 100.017540,229.290924 
	C99.898315,228.944534 99.779091,228.598145 99.659866,228.251755 
	C100.475586,228.100037 101.291306,227.948334 102.329735,228.006454 
z"/>
<path fill="#575757" opacity="1.000000" stroke="none" 
	d="
M147.670853,224.022919 
	C147.919373,225.385162 147.948166,226.721802 147.965164,228.456451 
	C147.953369,228.854462 147.525177,228.938538 147.307312,228.942017 
	C147.042374,227.573685 146.995300,226.201843 146.978516,224.417419 
	C147.008774,224.004837 147.451126,223.997314 147.670853,224.022919 
z"/>
<path fill="#6E6E6E" opacity="1.000000" stroke="none" 
	d="
M106.911255,225.640076 
	C106.358269,226.591736 105.659348,227.165100 104.995743,228.144562 
	C104.644432,227.742142 104.257805,226.933609 103.871170,226.125076 
	C104.835892,225.837311 105.800606,225.549545 106.911255,225.640076 
z"/>
<path fill="#EECEC7" opacity="1.000000" stroke="none" 
	d="
M107.984482,188.264099 
	C108.434601,187.983704 108.925613,188.004623 109.784927,188.065735 
	C109.443954,188.259109 108.734665,188.412262 107.984482,188.264099 
z"/>
<path fill="#FAF8FB" opacity="1.000000" stroke="none" 
	d="
M153.107605,113.447815 
	C153.563507,113.116753 153.974136,113.081505 154.695068,113.060692 
	C154.503143,113.687416 154.000916,114.299698 153.161621,114.915497 
	C152.903839,114.527214 152.983093,114.135414 153.107605,113.447815 
z"/>
<path fill="#5C5C5C" opacity="1.000000" stroke="none" 
	d="
M83.641258,226.169464 
	C83.983002,226.822632 83.997177,227.538361 83.971786,228.610352 
	C83.726036,228.055069 83.519867,227.143555 83.641258,226.169464 
z"/>
<path fill="#949494" opacity="1.000000" stroke="none" 
	d="
M86.825554,226.075439 
	C87.087151,226.865082 87.091156,227.522751 87.080078,228.508759 
	C86.875778,228.964722 86.686539,229.092346 86.165375,229.135651 
	C85.864288,228.275269 85.895134,227.499207 85.957550,226.335327 
	C86.182076,225.946182 86.375023,225.944839 86.825554,226.075439 
z"/>
<path fill="#E4D1D1" opacity="1.000000" stroke="none" 
	d="
M59.736118,110.044365 
	C59.931824,110.136093 59.941586,110.326996 59.934914,110.804886 
	C59.795719,110.775764 59.672947,110.459656 59.736118,110.044365 
z"/>
<path fill="#8A8A8A" opacity="1.000000" stroke="none" 
	d="
M64.922852,223.795685 
	C64.955841,224.018890 64.541161,224.032211 64.333832,224.039093 
	C64.380966,223.888138 64.635414,223.730301 64.922852,223.795685 
z"/>
<path fill="#CBC1E1" opacity="1.000000" stroke="none" 
	d="
M157.005157,121.007294 
	C157.099625,120.981644 157.187805,120.947868 157.129120,120.949966 
	C156.982269,120.985840 156.998886,120.999168 157.005157,121.007294 
z"/>
<path fill="#B5B5B5" opacity="1.000000" stroke="none" 
	d="
M96.580307,229.455444 
	C96.629036,229.526321 96.435356,229.548035 96.435356,229.548035 
	C96.435356,229.548035 96.531586,229.384552 96.580307,229.455444 
z"/>
<path fill="#7F7F7F" opacity="1.000000" stroke="none" 
	d="
M105.992569,229.241791 
	C106.102699,228.917542 106.293251,228.850266 106.767708,228.889313 
	C106.725410,229.163330 106.399200,229.331039 105.992569,229.241791 
z"/>
<path fill="#C8B4F4" opacity="1.000000" stroke="none" 
	d="
M145.015656,104.982483 
	C146.459244,106.300293 147.891571,107.636139 149.337021,108.957619 
	C150.544281,110.061317 151.766922,111.148163 152.984268,112.614151 
	C144.299606,116.563271 135.732407,120.339325 129.042206,127.660538 
	C122.883064,131.617065 116.759636,135.221283 110.323868,138.993774 
	C109.083748,138.688065 108.155968,138.214050 107.058182,137.471909 
	C107.594070,135.596710 108.891060,133.997665 108.913071,132.381287 
	C109.101959,118.510300 109.060265,104.636169 109.185516,90.280075 
	C109.283569,89.797180 109.571358,89.860947 109.962860,89.827110 
	C110.566620,89.544357 110.778877,89.295433 110.991150,89.046509 
	C111.546616,89.218918 112.102089,89.391319 112.868202,90.159325 
	C116.863556,94.822739 121.496750,96.965935 127.089836,96.931816 
	C127.630745,97.096466 128.171646,97.261116 128.863373,98.026169 
	C129.124207,99.419235 129.062073,100.826767 129.369904,100.912956 
	C134.560211,102.366211 139.796585,103.654930 145.022751,104.980118 
	C145.022751,104.980118 145.010086,104.994286 145.015656,104.982483 
z"/>
<path fill="#C1BDE7" opacity="1.000000" stroke="none" 
	d="
M144.857483,104.670532 
	C139.796585,103.654930 134.560211,102.366211 129.369904,100.912956 
	C129.062073,100.826767 129.124207,99.419235 129.031937,98.260628 
	C134.263855,100.050102 139.478027,102.205521 144.857483,104.670532 
z"/>
<path fill="#C1BDE7" opacity="1.000000" stroke="none" 
	d="
M126.994980,96.591606 
	C121.496750,96.965935 116.863556,94.822739 113.034996,90.406288 
	C117.627472,92.122231 122.263794,94.186813 126.994980,96.591606 
z"/>
<path fill="#C1BDE7" opacity="1.000000" stroke="none" 
	d="
M110.754913,89.117409 
	C110.778877,89.295433 110.566620,89.544357 110.108353,89.850662 
	C109.998894,89.593132 110.217682,89.353218 110.754913,89.117409 
z"/>
<path fill="#E9D1CD" opacity="1.000000" stroke="none" 
	d="
M87.156105,157.857269 
	C85.257996,155.948761 83.648880,153.824951 82.002708,151.353302 
	C86.740120,150.783630 87.805641,153.624084 87.156105,157.857269 
z"/>
<path fill="#FDF9EF" opacity="1.000000" stroke="none" 
	d="
M95.198517,141.263062 
	C96.559204,140.148666 98.109390,139.301971 99.659576,138.455276 
	C99.798950,140.061661 99.938324,141.668060 100.036270,143.641541 
	C98.459229,143.182663 96.923615,142.356720 95.198517,141.263062 
z"/>
<path fill="#E9D1CD" opacity="1.000000" stroke="none" 
	d="
M81.113174,148.911407 
	C79.878555,147.988831 78.911957,146.876312 77.909180,145.411285 
	C79.042397,146.279678 80.211792,147.500580 81.113174,148.911407 
z"/>
<path fill="#CBC1E1" opacity="1.000000" stroke="none" 
	d="
M143.229980,129.951797 
	C143.396332,129.626175 143.873718,129.295776 144.651474,128.944565 
	C144.481567,129.264847 144.011276,129.605927 143.229980,129.951797 
z"/>
<path fill="#FFFEFE" opacity="1.000000" stroke="none" 
	d="
M137.425751,227.418976 
	C137.498428,227.359924 137.518814,227.581161 137.518814,227.581161 
	C137.518814,227.581161 137.353088,227.478012 137.425751,227.418976 
z"/>
</svg>