<svg version="1.1" id="Layer_1" xmlns="http://www.w3.org/2000/svg" xmlns:xlink="http://www.w3.org/1999/xlink" x="0px" y="0px"
	 width="100%" viewBox="0 0 225 225" enable-background="new 0 0 225 225" xml:space="preserve">
<path fill="#FFFFFF" opacity="1.000000" stroke="none" 
	d="
M107.000000,226.000000 
	C71.333336,226.000000 36.166672,226.000000 1.000005,226.000000 
	C1.000003,151.000000 1.000003,76.000015 1.000002,1.000015 
	C75.999992,1.000010 150.999985,1.000010 225.999969,1.000005 
	C225.999985,75.999985 225.999985,150.999969 226.000000,225.999969 
	C186.500000,226.000000 147.000000,226.000000 107.000000,226.000000 
M113.241631,179.433594 
	C114.522743,178.020981 115.960167,176.719910 117.060417,175.178223 
	C126.438461,162.037491 135.754105,148.852234 145.091171,135.682281 
	C147.709030,131.989807 150.336014,128.303833 152.958817,124.614883 
	C152.718628,124.378517 152.478439,124.142159 152.238251,123.905800 
	C139.207245,131.439484 126.176231,138.973160 112.535782,146.049652 
	C100.198555,138.815521 87.861328,131.581390 74.857895,123.956627 
	C75.165123,125.381668 75.132607,125.917458 75.375023,126.256851 
	C87.914223,143.811386 100.476768,161.349243 113.241631,179.433594 
M113.550308,138.763794 
	C126.232330,131.324783 138.923859,123.901840 151.576050,116.412430 
	C152.467789,115.884567 153.069244,114.866356 153.620468,113.420685 
	C140.398514,91.635155 127.176567,69.849625 113.654648,47.600113 
	C109.527458,54.102478 105.269424,60.526093 101.299271,67.122963 
	C91.917702,82.711548 82.673065,98.382538 73.196739,114.545502 
	C86.473793,122.521461 99.750854,130.497421 113.550308,138.763794 
z"/>
<path fill="#FDEB5C" opacity="1.000000" stroke="none" 
	d="
M73.373055,114.020203 
	C82.673065,98.382538 91.917702,82.711548 101.299271,67.122963 
	C105.269424,60.526093 109.527458,54.102478 113.791336,48.296677 
	C113.938667,64.638870 113.949326,80.284492 113.779060,96.015091 
	C113.359795,96.238701 113.180901,96.432281 112.686226,96.770195 
	C111.699089,97.104401 111.078835,97.330360 110.476509,97.596817 
	C98.107460,103.068512 85.740456,108.544807 73.373055,114.020203 
z"/>
<path fill="#F48068" opacity="1.000000" stroke="none" 
	d="
M113.959976,95.930115 
	C113.949326,80.284492 113.938667,64.638870 113.941315,48.528671 
	C127.176567,69.849625 140.398514,91.635155 153.357483,113.688957 
	C140.049667,107.948189 127.004829,101.939156 113.959976,95.930115 
z"/>
<path fill="#A75FA4" opacity="1.000000" stroke="none" 
	d="
M113.779068,96.015091 
	C127.004829,101.939156 140.049667,107.948189 153.450104,114.016693 
	C153.069244,114.866356 152.467789,115.884567 151.576050,116.412430 
	C138.923859,123.901840 126.232330,131.324783 113.350647,138.115082 
	C113.121147,123.871170 113.091301,110.275993 113.061455,96.680809 
	C113.180901,96.432281 113.359795,96.238701 113.779068,96.015091 
z"/>
<path fill="#54BA68" opacity="1.000000" stroke="none" 
	d="
M112.686226,96.770195 
	C113.091301,110.275993 113.121147,123.871170 113.089455,137.969864 
	C99.750854,130.497421 86.473793,122.521461 73.284897,114.282852 
	C85.740456,108.544807 98.107460,103.068512 110.476509,97.596817 
	C111.078835,97.330360 111.699089,97.104401 112.686226,96.770195 
z"/>
<path fill="#6679BA" opacity="1.000000" stroke="none" 
	d="
M113.145218,146.506836 
	C126.176231,138.973160 139.207245,131.439484 152.238251,123.905800 
	C152.478439,124.142159 152.718628,124.378517 152.958817,124.614883 
	C150.336014,128.303833 147.709030,131.989807 145.091171,135.682281 
	C135.754105,148.852234 126.438461,162.037491 117.060417,175.178223 
	C115.960167,176.719910 114.522743,178.020981 113.146484,178.700226 
	C113.082626,167.480179 113.113930,156.993500 113.145218,146.506836 
z"/>
<path fill="#04B3E2" opacity="1.000000" stroke="none" 
	d="
M112.840500,146.278244 
	C113.113930,156.993500 113.082626,167.480179 113.044083,178.427856 
	C100.476768,161.349243 87.914223,143.811386 75.375023,126.256851 
	C75.132607,125.917458 75.165123,125.381668 74.857895,123.956627 
	C87.861328,131.581390 100.198555,138.815521 112.840500,146.278244 
z"/>
</svg>